<svg width="48" height="45" viewBox="0 0 48 45" fill="none" xmlns="http://www.w3.org/2000/svg">
<path d="M26.705 29.7076L28.0194 29.8833C29.1378 30.0328 30.2442 29.7055 31.0578 28.9756L30.5083 28.3951M26.705 29.7076C26.6482 29.6772 26.5921 29.6452 26.5367 29.6118M26.705 29.7076C27.1076 29.9235 27.5425 30.0631 27.9869 30.1265C29.1214 30.2883 30.3178 29.9532 31.1957 29.1213C31.1959 29.1212 31.196 29.121 31.1962 29.1209L31.0582 28.9753M26.705 29.7076L26.7011 29.7071L26.743 29.9871M26.5367 29.6118C26.3949 29.387 26.2254 29.1739 26.0284 28.9772L26.5797 28.3947M26.5367 29.6118C26.6136 29.7337 26.6824 29.859 26.743 29.9871M26.5367 29.6118C26.3084 29.4739 26.0921 29.3103 25.8923 29.121L31.0582 28.9753M26.5797 28.3947C27.6647 29.4231 29.4238 29.4229 30.5083 28.3951M26.5797 28.3947L26.028 28.9768L17.4127 19.7169M26.5797 28.3947L17.4127 19.7169M30.5083 28.3951L31.0582 28.9753M30.5083 28.3951C31.5917 27.3695 31.5917 25.7014 30.5087 24.6763L31.0582 28.9753M26.743 29.9871C26.8965 30.3113 26.9979 30.653 27.0472 31.0001C27.1982 32.0651 26.8588 33.1825 26.0283 34.0111C26.005 34.0343 25.9814 34.0573 25.9574 34.08L16.1033 20.9569L25.2697 29.6341C26.3527 30.66 26.3529 32.3286 25.2699 33.3538L25.8195 33.9343C25.844 33.9123 25.8682 33.89 25.8922 33.8673C26.7203 33.0834 27.0476 32.0232 26.8979 31.0225L26.743 29.9871ZM17.413 15.9978L16.8637 15.4171L16.8634 15.4173L17.413 15.9978ZM17.413 15.9978C16.3261 17.0259 16.3267 18.6895 17.4127 19.7169M17.413 15.9978L17.4127 19.7169M36.1549 5.32596C36.1664 5.34131 36.1782 5.35653 36.1903 5.37162L36.1667 5.37555L36.1549 5.32596ZM21.219 14.6854L21.1771 14.4051C21.2377 14.5333 21.3066 14.6587 21.3835 14.7806C21.3282 14.7472 21.2722 14.7153 21.2155 14.685L21.219 14.6854ZM31.9818 25.0284C31.9211 24.9003 31.8523 24.7749 31.7753 24.6529C31.8311 24.6865 31.8876 24.7187 31.9448 24.7492L31.94 24.7486L31.9818 25.0284ZM15.9348 19.3576C15.9964 19.488 16.0665 19.6157 16.145 19.7398C16.0896 19.7064 16.0335 19.6745 15.9767 19.6441L15.9774 19.6442L15.9348 19.3576ZM10.7401 24.6042L10.6975 24.318C10.7589 24.448 10.8287 24.5753 10.907 24.699C10.852 24.6659 10.7964 24.6343 10.7401 24.6042ZM21.4626 34.6655L21.5045 34.9449C21.444 34.8173 21.3754 34.6923 21.2987 34.5708C21.3537 34.604 21.4094 34.6357 21.4657 34.6659L21.4626 34.6655Z" fill="#FFEEEE" stroke="white" stroke-width="2"/>
</svg>
